<?xml version="1.0" encoding="UTF-8" standalone="no"?>
<!DOCTYPE svg PUBLIC "-//W3C//DTD SVG 1.1//EN"
 "http://www.w3.org/Graphics/SVG/1.1/DTD/svg11.dtd">
<!-- Generated by graphviz version 2.38.0 (20140413.2041)
 -->
<!-- Title: modes Pages: 1 -->
<svg width="200pt" height="188pt"
 viewBox="0.00 0.00 200.25 188.00" xmlns="http://www.w3.org/2000/svg" xmlns:xlink="http://www.w3.org/1999/xlink">
<g id="graph0" class="graph" transform="scale(1 1) rotate(0) translate(4 184)">
<title>modes</title>
<polygon fill="white" stroke="none" points="-4,4 -4,-184 196.247,-184 196.247,4 -4,4"/>
<!-- idle -->
<g id="node1" class="node"><title>idle</title>
<ellipse fill="none" stroke="black" cx="85.5431" cy="-162" rx="27" ry="18"/>
<text text-anchor="middle" x="85.5431" y="-157.8" font-family="Times,serif" font-size="14.00">idle</text>
</g>
<!-- read -->
<g id="node2" class="node"><title>read</title>
<ellipse fill="none" stroke="black" cx="40.5431" cy="-90" rx="27" ry="18"/>
<text text-anchor="middle" x="40.5431" y="-85.8" font-family="Times,serif" font-size="14.00">read</text>
</g>
<!-- idle&#45;&gt;read -->
<g id="edge1" class="edge"><title>idle&#45;&gt;read</title>
<path fill="none" stroke="black" d="M75.332,-145.116C69.6935,-136.345 62.5698,-125.264 56.2393,-115.416"/>
<polygon fill="black" stroke="black" points="59.0657,-113.34 50.7139,-106.821 53.1774,-117.126 59.0657,-113.34"/>
</g>
<!-- write -->
<g id="node3" class="node"><title>write</title>
<ellipse fill="none" stroke="black" cx="131.543" cy="-90" rx="28.0565" ry="18"/>
<text text-anchor="middle" x="131.543" y="-85.8" font-family="Times,serif" font-size="14.00">write</text>
</g>
<!-- idle&#45;&gt;write -->
<g id="edge2" class="edge"><title>idle&#45;&gt;write</title>
<path fill="none" stroke="black" d="M95.9813,-145.116C101.745,-136.345 109.027,-125.264 115.498,-115.416"/>
<polygon fill="black" stroke="black" points="118.579,-117.1 121.146,-106.821 112.73,-113.256 118.579,-117.1"/>
</g>
<!-- close -->
<g id="node4" class="node"><title>close</title>
<ellipse fill="none" stroke="black" cx="40.5431" cy="-18" rx="28.0565" ry="18"/>
<text text-anchor="middle" x="40.5431" y="-13.8" font-family="Times,serif" font-size="14.00">close</text>
</g>
<!-- idle&#45;&gt;close -->
<g id="edge3" class="edge"><title>idle&#45;&gt;close</title>
<path fill="none" stroke="black" d="M61.9332,-152.831C42.6254,-144.75 16.6131,-130.322 4.54315,-108 -7.14418,-86.3858 6.56759,-60.151 20.3012,-41.7851"/>
<polygon fill="black" stroke="black" points="23.0479,-43.9544 26.5217,-33.9452 17.5643,-39.6035 23.0479,-43.9544"/>
</g>
<!-- panic -->
<g id="node5" class="node"><title>panic</title>
<ellipse fill="none" stroke="black" cx="131.543" cy="-18" rx="29.0172" ry="18"/>
<text text-anchor="middle" x="131.543" y="-13.8" font-family="Times,serif" font-size="14.00">panic</text>
</g>
<!-- idle&#45;&gt;panic -->
<g id="edge4" class="edge"><title>idle&#45;&gt;panic</title>
<path fill="none" stroke="black" d="M111.04,-155.544C135.237,-148.864 170.253,-134.944 186.543,-108 194.821,-94.3078 192.803,-86.7248 186.543,-72 180.797,-58.4826 169.727,-46.7404 159.015,-37.7678"/>
<polygon fill="black" stroke="black" points="161.014,-34.8875 150.988,-31.4628 156.69,-40.3924 161.014,-34.8875"/>
</g>
<!-- read&#45;&gt;read -->
<g id="edge5" class="edge"><title>read&#45;&gt;read</title>
<path fill="none" stroke="black" d="M60.4382,-102.432C73.2311,-105.675 85.5431,-101.531 85.5431,-90 85.5431,-81.6218 79.0437,-77.1433 70.5826,-76.5644"/>
<polygon fill="black" stroke="black" points="70.0451,-73.1004 60.4382,-77.5679 70.7342,-80.0665 70.0451,-73.1004"/>
</g>
<!-- read&#45;&gt;close -->
<g id="edge6" class="edge"><title>read&#45;&gt;close</title>
<path fill="none" stroke="black" d="M40.5431,-71.6966C40.5431,-63.9827 40.5431,-54.7125 40.5431,-46.1124"/>
<polygon fill="black" stroke="black" points="44.0432,-46.1043 40.5431,-36.1043 37.0432,-46.1044 44.0432,-46.1043"/>
</g>
<!-- read&#45;&gt;panic -->
<g id="edge7" class="edge"><title>read&#45;&gt;panic</title>
<path fill="none" stroke="black" d="M57.6596,-75.8335C71.2131,-65.4078 90.3611,-50.6785 105.768,-38.8272"/>
<polygon fill="black" stroke="black" points="108.091,-41.4562 113.883,-32.5849 103.823,-35.9079 108.091,-41.4562"/>
</g>
<!-- write&#45;&gt;write -->
<g id="edge8" class="edge"><title>write&#45;&gt;write</title>
<path fill="none" stroke="black" d="M152.003,-102.432C165.159,-105.675 177.821,-101.531 177.821,-90 177.821,-81.5317 170.992,-77.0474 162.154,-76.5471"/>
<polygon fill="black" stroke="black" points="161.603,-73.0848 152.003,-77.5679 162.303,-80.0497 161.603,-73.0848"/>
</g>
<!-- write&#45;&gt;close -->
<g id="edge9" class="edge"><title>write&#45;&gt;close</title>
<path fill="none" stroke="black" d="M113.997,-75.5033C100.401,-65.0447 81.3678,-50.4036 66.0828,-38.6459"/>
<polygon fill="black" stroke="black" points="68.0953,-35.7782 58.035,-32.4553 63.8273,-41.3266 68.0953,-35.7782"/>
</g>
<!-- write&#45;&gt;panic -->
<g id="edge10" class="edge"><title>write&#45;&gt;panic</title>
<path fill="none" stroke="black" d="M131.543,-71.6966C131.543,-63.9827 131.543,-54.7125 131.543,-46.1124"/>
<polygon fill="black" stroke="black" points="135.043,-46.1043 131.543,-36.1043 128.043,-46.1044 135.043,-46.1043"/>
</g>
</g>
</svg>
