<?xml version="1.0" encoding="UTF-8" standalone="no"?>
<!DOCTYPE svg PUBLIC "-//W3C//DTD SVG 1.1//EN"
 "http://www.w3.org/Graphics/SVG/1.1/DTD/svg11.dtd">
<!-- Generated by graphviz version 2.50.0 (20211204.2007)
 -->
<!-- Title: modes Pages: 1 -->
<svg width="241pt" height="378pt"
 viewBox="0.00 0.00 241.37 377.88" xmlns="http://www.w3.org/2000/svg" xmlns:xlink="http://www.w3.org/1999/xlink">
<g id="graph0" class="graph" transform="scale(1 1) rotate(0) translate(4 373.88)">
<title>modes</title>
<polygon fill="white" stroke="transparent" points="-4,4 -4,-373.88 237.37,-373.88 237.37,4 -4,4"/>
<!-- start -->
<g id="node1" class="node">
<title>start</title>
<ellipse fill="black" stroke="black" cx="141.26" cy="-368.08" rx="1.8" ry="1.8"/>
</g>
<!-- idle -->
<g id="node2" class="node">
<title>idle</title>
<ellipse fill="none" stroke="black" cx="141.26" cy="-306.23" rx="24.1" ry="24.1"/>
<text text-anchor="middle" x="141.26" y="-302.53" font-family="Times,serif" font-size="14.00">idle</text>
</g>
<!-- start&#45;&gt;idle -->
<g id="edge1" class="edge">
<title>start&#45;&gt;idle</title>
<path fill="none" stroke="black" d="M141.26,-366.04C141.26,-362.73 141.26,-351.95 141.26,-340.52"/>
<polygon fill="black" stroke="black" points="144.76,-340.47 141.26,-330.47 137.76,-340.47 144.76,-340.47"/>
</g>
<!-- read -->
<g id="node3" class="node">
<title>read</title>
<ellipse fill="none" stroke="black" cx="41.26" cy="-217.59" rx="26" ry="26"/>
<text text-anchor="middle" x="41.26" y="-213.89" font-family="Times,serif" font-size="14.00">read</text>
</g>
<!-- idle&#45;&gt;read -->
<g id="edge2" class="edge">
<title>idle&#45;&gt;read</title>
<path fill="none" stroke="black" d="M123.39,-289.74C108.09,-276.49 85.83,-257.21 68.35,-242.06"/>
<polygon fill="black" stroke="black" points="70.54,-239.33 60.7,-235.42 65.96,-244.62 70.54,-239.33"/>
</g>
<!-- write -->
<g id="node4" class="node">
<title>write</title>
<ellipse fill="none" stroke="black" cx="170.26" cy="-217.59" rx="28.7" ry="28.7"/>
<text text-anchor="middle" x="170.26" y="-213.89" font-family="Times,serif" font-size="14.00">write</text>
</g>
<!-- idle&#45;&gt;write -->
<g id="edge3" class="edge">
<title>idle&#45;&gt;write</title>
<path fill="none" stroke="black" d="M148.73,-282.92C151.62,-274.29 155,-264.18 158.22,-254.58"/>
<polygon fill="black" stroke="black" points="161.63,-255.42 161.48,-244.83 154.99,-253.2 161.63,-255.42"/>
</g>
<!-- close -->
<g id="node5" class="node">
<title>close</title>
<ellipse fill="none" stroke="black" stroke-width="2" cx="106.26" cy="-28.6" rx="28.7" ry="28.7"/>
<text text-anchor="middle" x="106.26" y="-24.9" font-family="Times,serif" font-size="14.00">close</text>
</g>
<!-- idle&#45;&gt;close -->
<g id="edge4" class="edge">
<title>idle&#45;&gt;close</title>
<path fill="none" stroke="black" d="M163.7,-296.79C184.18,-287.73 213.19,-271.18 226.26,-246.18 238.04,-223.66 232.52,-213.63 226.26,-188.99 214.34,-142.04 203.89,-131.52 174.26,-93.19 163.13,-78.79 148.63,-64.75 135.88,-53.54"/>
<polygon fill="black" stroke="black" points="138.08,-50.82 128.22,-46.95 133.52,-56.13 138.08,-50.82"/>
</g>
<!-- panic -->
<g id="node6" class="node">
<title>panic</title>
<ellipse fill="none" stroke="black" stroke-width="2" cx="114.26" cy="-123.09" rx="29.8" ry="29.8"/>
<text text-anchor="middle" x="114.26" y="-119.39" font-family="Times,serif" font-size="14.00">panic</text>
</g>
<!-- idle&#45;&gt;panic -->
<g id="edge5" class="edge">
<title>idle&#45;&gt;panic</title>
<path fill="none" stroke="black" d="M137.73,-282.24C136.06,-271.32 134.05,-258.08 132.26,-246.18 128.09,-218.31 123.45,-186.85 119.93,-162.85"/>
<polygon fill="black" stroke="black" points="123.36,-162.1 118.44,-152.71 116.43,-163.12 123.36,-162.1"/>
</g>
<!-- read&#45;&gt;read -->
<g id="edge6" class="edge">
<title>read&#45;&gt;read</title>
<path fill="none" stroke="black" d="M62.09,-233.18C74.09,-236.36 85.26,-231.17 85.26,-217.59 85.26,-208.04 79.74,-202.64 72.29,-201.37"/>
<polygon fill="black" stroke="black" points="71.86,-197.89 62.09,-201.99 72.28,-204.88 71.86,-197.89"/>
</g>
<!-- read&#45;&gt;close -->
<g id="edge8" class="edge">
<title>read&#45;&gt;close</title>
<path fill="none" stroke="black" d="M26.48,-195.84C10.34,-170.4 -10.95,-126.54 7.26,-93.19 20.54,-68.88 47.54,-52.48 69.99,-42.43"/>
<polygon fill="black" stroke="black" points="71.43,-45.62 79.28,-38.51 68.71,-39.17 71.43,-45.62"/>
</g>
<!-- read&#45;&gt;panic -->
<g id="edge9" class="edge">
<title>read&#45;&gt;panic</title>
<path fill="none" stroke="black" d="M57.1,-196.52C66.62,-184.46 78.93,-168.87 89.68,-155.24"/>
<polygon fill="black" stroke="black" points="92.69,-157.07 96.14,-147.05 87.2,-152.74 92.69,-157.07"/>
</g>
<!-- stop -->
<g id="node7" class="node">
<title>stop</title>
<ellipse fill="none" stroke="black" stroke-width="2" cx="41.26" cy="-123.09" rx="25.2" ry="25.2"/>
<text text-anchor="middle" x="41.26" y="-119.39" font-family="Times,serif" font-size="14.00">stop</text>
</g>
<!-- read&#45;&gt;stop -->
<g id="edge7" class="edge">
<title>read&#45;&gt;stop</title>
<path fill="none" stroke="black" d="M41.26,-191.31C41.26,-181.26 41.26,-169.53 41.26,-158.71"/>
<polygon fill="black" stroke="black" points="44.76,-158.7 41.26,-148.7 37.76,-158.7 44.76,-158.7"/>
</g>
<!-- write&#45;&gt;write -->
<g id="edge10" class="edge">
<title>write&#45;&gt;write</title>
<path fill="none" stroke="black" d="M194.24,-233.6C206.2,-235.82 216.86,-230.48 216.86,-217.59 216.86,-208.52 211.59,-203.19 204.3,-201.6"/>
<polygon fill="black" stroke="black" points="204.25,-198.1 194.24,-201.57 204.23,-205.1 204.25,-198.1"/>
</g>
<!-- write&#45;&gt;close -->
<g id="edge11" class="edge">
<title>write&#45;&gt;close</title>
<path fill="none" stroke="black" d="M170.32,-188.62C169.47,-162.92 165.9,-124.24 153.26,-93.19 148.16,-80.65 140.01,-68.34 131.92,-57.93"/>
<polygon fill="black" stroke="black" points="134.53,-55.59 125.51,-50.03 129.09,-60 134.53,-55.59"/>
</g>
<!-- write&#45;&gt;panic -->
<g id="edge12" class="edge">
<title>write&#45;&gt;panic</title>
<path fill="none" stroke="black" d="M155.84,-192.77C149.39,-182.1 141.66,-169.34 134.63,-157.73"/>
<polygon fill="black" stroke="black" points="137.59,-155.87 129.42,-149.12 131.6,-159.49 137.59,-155.87"/>
</g>
<!-- stop&#45;&gt;close -->
<g id="edge13" class="edge">
<title>stop&#45;&gt;close</title>
<path fill="none" stroke="black" d="M55.37,-102.02C63.84,-89.97 74.8,-74.37 84.38,-60.74"/>
<polygon fill="black" stroke="black" points="87.24,-62.75 90.13,-52.56 81.51,-58.73 87.24,-62.75"/>
</g>
</g>
</svg>
