<?xml version="1.0" encoding="UTF-8" standalone="no"?>
<!DOCTYPE svg PUBLIC "-//W3C//DTD SVG 1.1//EN"
 "http://www.w3.org/Graphics/SVG/1.1/DTD/svg11.dtd">
<!-- Generated by graphviz version 2.43.0 (0)
 -->
<!-- Title: modes Pages: 1 -->
<svg width="318pt" height="422pt"
 viewBox="0.00 0.00 317.52 422.08" xmlns="http://www.w3.org/2000/svg" xmlns:xlink="http://www.w3.org/1999/xlink">
<g id="graph0" class="graph" transform="scale(1 1) rotate(0) translate(4 418.08)">
<title>modes</title>
<polygon fill="white" stroke="transparent" points="-4,4 -4,-418.08 313.52,-418.08 313.52,4 -4,4"/>
<!-- start -->
<g id="node1" class="node">
<title>start</title>
<ellipse fill="black" stroke="black" cx="166.18" cy="-412.28" rx="1.8" ry="1.8"/>
</g>
<!-- idle -->
<g id="node2" class="node">
<title>idle</title>
<ellipse fill="none" stroke="black" cx="166.18" cy="-346.53" rx="27.9" ry="27.9"/>
<text text-anchor="middle" x="166.18" y="-342.83" font-family="Times,serif" font-size="14.00">idle</text>
</g>
<!-- start&#45;&gt;idle -->
<g id="edge1" class="edge">
<title>start&#45;&gt;idle</title>
<path fill="none" stroke="black" d="M166.18,-410.17C166.18,-406.82 166.18,-396.31 166.18,-384.83"/>
<polygon fill="black" stroke="black" points="169.68,-384.65 166.18,-374.65 162.68,-384.65 169.68,-384.65"/>
</g>
<!-- read -->
<g id="node3" class="node">
<title>read</title>
<ellipse fill="none" stroke="black" cx="53.18" cy="-247.48" rx="31.7" ry="31.7"/>
<text text-anchor="middle" x="53.18" y="-243.78" font-family="Times,serif" font-size="14.00">read</text>
</g>
<!-- idle&#45;&gt;read -->
<g id="edge2" class="edge">
<title>idle&#45;&gt;read</title>
<path fill="none" stroke="black" d="M145.45,-327.73C128.43,-313.11 104.04,-292.17 84.62,-275.48"/>
<polygon fill="black" stroke="black" points="86.77,-272.72 76.9,-268.86 82.21,-278.03 86.77,-272.72"/>
</g>
<!-- write -->
<g id="node4" class="node">
<title>write</title>
<ellipse fill="none" stroke="black" cx="198.18" cy="-247.48" rx="35.19" ry="35.19"/>
<text text-anchor="middle" x="198.18" y="-243.78" font-family="Times,serif" font-size="14.00">write</text>
</g>
<!-- idle&#45;&gt;write -->
<g id="edge3" class="edge">
<title>idle&#45;&gt;write</title>
<path fill="none" stroke="black" d="M174.67,-319.78C177.61,-310.85 181,-300.59 184.26,-290.69"/>
<polygon fill="black" stroke="black" points="187.66,-291.56 187.47,-280.97 181.01,-289.37 187.66,-291.56"/>
</g>
<!-- close -->
<g id="node5" class="node">
<title>close</title>
<ellipse fill="none" stroke="black" stroke-width="2" cx="198.18" cy="-34.45" rx="34.39" ry="34.39"/>
<text text-anchor="middle" x="198.18" y="-30.75" font-family="Times,serif" font-size="14.00">close</text>
</g>
<!-- idle&#45;&gt;close -->
<g id="edge4" class="edge">
<title>idle&#45;&gt;close</title>
<path fill="none" stroke="black" d="M191.3,-334.14C212.28,-323.48 241.65,-305.74 260.18,-282.58 291.78,-243.07 291.91,-226.12 301.18,-176.39 307,-145.15 316.1,-132.95 301.18,-104.89 288.09,-80.29 261.98,-62.83 239.32,-51.58"/>
<polygon fill="black" stroke="black" points="240.74,-48.37 230.2,-47.27 237.75,-54.7 240.74,-48.37"/>
</g>
<!-- panic -->
<g id="node6" class="node">
<title>panic</title>
<ellipse fill="none" stroke="black" stroke-width="2" cx="134.18" cy="-140.64" rx="36" ry="36"/>
<text text-anchor="middle" x="134.18" y="-136.94" font-family="Times,serif" font-size="14.00">panic</text>
</g>
<!-- idle&#45;&gt;panic -->
<g id="edge5" class="edge">
<title>idle&#45;&gt;panic</title>
<path fill="none" stroke="black" d="M160.82,-318.93C158.64,-307.73 156.17,-294.54 154.18,-282.58 148.84,-250.48 143.7,-214.11 139.97,-186.36"/>
<polygon fill="black" stroke="black" points="143.41,-185.62 138.61,-176.17 136.47,-186.55 143.41,-185.62"/>
</g>
<!-- read&#45;&gt;read -->
<g id="edge6" class="edge">
<title>read&#45;&gt;read</title>
<path fill="none" stroke="black" d="M79.59,-265.45C92.07,-267.54 103.02,-261.55 103.02,-247.48 103.02,-237.48 97.49,-231.56 89.8,-229.73"/>
<polygon fill="black" stroke="black" points="89.66,-226.22 79.59,-229.51 89.52,-233.22 89.66,-226.22"/>
</g>
<!-- read&#45;&gt;close -->
<g id="edge8" class="edge">
<title>read&#45;&gt;close</title>
<path fill="none" stroke="black" d="M33.8,-221.94C12.69,-192.01 -14.93,-140.94 10.18,-104.89 42.38,-58.67 109.03,-43.14 153.69,-37.96"/>
<polygon fill="black" stroke="black" points="154.11,-41.44 163.7,-36.93 153.39,-34.48 154.11,-41.44"/>
</g>
<!-- read&#45;&gt;panic -->
<g id="edge9" class="edge">
<title>read&#45;&gt;panic</title>
<path fill="none" stroke="black" d="M72.17,-221.9C82.43,-208.63 95.28,-191.99 106.62,-177.31"/>
<polygon fill="black" stroke="black" points="109.39,-179.45 112.74,-169.4 103.85,-175.17 109.39,-179.45"/>
</g>
<!-- stop -->
<g id="node7" class="node">
<title>stop</title>
<ellipse fill="none" stroke="black" stroke-width="2" cx="50.18" cy="-140.64" rx="30.59" ry="30.59"/>
<text text-anchor="middle" x="50.18" y="-136.94" font-family="Times,serif" font-size="14.00">stop</text>
</g>
<!-- read&#45;&gt;stop -->
<g id="edge7" class="edge">
<title>read&#45;&gt;stop</title>
<path fill="none" stroke="black" d="M52.29,-215.59C51.99,-204.87 51.64,-192.68 51.31,-181.34"/>
<polygon fill="black" stroke="black" points="54.81,-181.13 51.02,-171.23 47.81,-181.33 54.81,-181.13"/>
</g>
<!-- write&#45;&gt;write -->
<g id="edge10" class="edge">
<title>write&#45;&gt;write</title>
<path fill="none" stroke="black" d="M228.2,-265.7C240.69,-266.95 251.27,-260.88 251.27,-247.48 251.27,-238.06 246.04,-232.27 238.59,-230.09"/>
<polygon fill="black" stroke="black" points="238.44,-226.57 228.2,-229.27 237.89,-233.55 238.44,-226.57"/>
</g>
<!-- write&#45;&gt;close -->
<g id="edge12" class="edge">
<title>write&#45;&gt;close</title>
<path fill="none" stroke="black" d="M198.18,-212.11C198.18,-175.87 198.18,-118.67 198.18,-79.23"/>
<polygon fill="black" stroke="black" points="201.68,-79.11 198.18,-69.11 194.68,-79.11 201.68,-79.11"/>
</g>
<!-- write&#45;&gt;panic -->
<g id="edge13" class="edge">
<title>write&#45;&gt;panic</title>
<path fill="none" stroke="black" d="M180.18,-217C173.22,-205.6 165.16,-192.39 157.74,-180.24"/>
<polygon fill="black" stroke="black" points="160.68,-178.34 152.48,-171.63 154.71,-181.99 160.68,-178.34"/>
</g>
<!-- done -->
<g id="node8" class="node">
<title>done</title>
<ellipse fill="none" stroke="black" stroke-width="2" cx="259.18" cy="-140.64" rx="33.29" ry="33.29"/>
<text text-anchor="middle" x="259.18" y="-136.94" font-family="Times,serif" font-size="14.00">done</text>
</g>
<!-- write&#45;&gt;done -->
<g id="edge11" class="edge">
<title>write&#45;&gt;done</title>
<path fill="none" stroke="black" d="M215.49,-216.72C222.41,-204.83 230.45,-191.02 237.73,-178.51"/>
<polygon fill="black" stroke="black" points="240.86,-180.08 242.87,-169.68 234.81,-176.56 240.86,-180.08"/>
</g>
<!-- stop&#45;&gt;close -->
<g id="edge14" class="edge">
<title>stop&#45;&gt;close</title>
<path fill="none" stroke="black" d="M71.93,-119.16C77.41,-114.3 83.39,-109.27 89.18,-104.89 111.73,-87.84 138.48,-70.75 159.84,-57.79"/>
<polygon fill="black" stroke="black" points="161.87,-60.65 168.64,-52.5 158.27,-54.66 161.87,-60.65"/>
</g>
<!-- done&#45;&gt;close -->
<g id="edge15" class="edge">
<title>done&#45;&gt;close</title>
<path fill="none" stroke="black" d="M242.83,-111.72C235.96,-99.98 227.85,-86.14 220.45,-73.49"/>
<polygon fill="black" stroke="black" points="223.28,-71.4 215.21,-64.54 217.24,-74.94 223.28,-71.4"/>
</g>
</g>
</svg>
